# xmcd CD database file
#
# Track frame offsets:
#	150
#	8997
#	24584
#	43160
#	53828
#	65807
#	82935
#	103438
#	107274
#	122368
#	137701
#	161399
#	184750
#
# Disc length: 2721 seconds
#
# Revision: 0
# Processed by: cddbd v1.5.2PL0 Copyright (c) Steve Scherf et al.
# Submitted via: CDex 1.51
#
DISCID=a70a9f0d
DTITLE=Howard Levy - Alone and Together
DYEAR=1900
DGENRE=Jazz
TTITLE0=Aguas Quietas
TTITLE1=Taking a Chance on Love
TTITLE2=Ruminations
TTITLE3=Blues Dirge and Shuffle 1
TTITLE4=Blues Dirge and Shuffle 2
TTITLE5=One for Dimitri
TTITLE6=The Nearness of You
TTITLE7=Funkyharps
TTITLE8=Birthhead's Blues
TTITLE9=Ornette in the AM
TTITLE10=Every Time We Say Goodbye
TTITLE11=Prelude to a Kiss
TTITLE12=There is No Greater Love
EXTD=
EXTT0=
EXTT1=
EXTT2=
EXTT3=
EXTT4=
EXTT5=
EXTT6=
EXTT7=
EXTT8=
EXTT9=
EXTT10=
EXTT11=
EXTT12=
PLAYORDER=
